<?xml version="1.0" standalone="no"?>
<!DOCTYPE svg PUBLIC "-//W3C//DTD SVG 20010904//EN"
 "http://www.w3.org/TR/2001/REC-SVG-20010904/DTD/svg10.dtd">
<svg version="1.0" xmlns="http://www.w3.org/2000/svg"
 width="986.000000pt" height="685.000000pt" viewBox="0 0 986.000000 685.000000"
 preserveAspectRatio="xMidYMid meet">
<metadata>
Created by potrace 1.16, written by Peter Selinger 2001-2019
</metadata>
<g transform="translate(0.000000,685.000000) scale(0.100000,-0.100000)"
fill="#000000" stroke="none">
<path d="M4770 6109 c-431 -55 -765 -224 -1095 -554 l-150 -150 237 -3 c130
-1 346 -1 480 0 l243 3 -136 55 c-75 30 -138 60 -140 65 -6 19 197 155 336
225 150 75 274 120 413 150 456 99 940 -3 1362 -286 106 -71 111 -73 60 -20
-208 218 -699 444 -1110 511 -103 16 -386 19 -500 4z"/>
<path d="M3250 5255 c0 -6 139 -248 472 -825 53 -91 105 -181 115 -200 11 -19
85 -147 165 -285 79 -137 233 -403 340 -590 215 -372 296 -513 410 -710 41
-71 101 -175 133 -230 32 -55 59 -102 61 -104 2 -2 4 554 4 1237 l0 1242 -140
0 -140 0 0 -700 c0 -666 -1 -700 -18 -700 -20 0 -20 0 -502 835 -355 615 -420
729 -420 738 0 4 275 7 610 7 l610 0 0 145 0 145 -850 0 c-467 0 -850 -2 -850
-5z"/>
<path d="M5137 5253 c-10 -9 -9 -2943 1 -2943 4 0 60 82 125 182 l118 181 -1
1149 0 1148 475 0 476 0 22 -24 c12 -12 51 -78 87 -144 36 -67 68 -122 72
-122 4 0 46 71 94 158 48 86 105 189 127 227 21 39 54 98 73 133 l35 62 -849
0 c-467 0 -852 -3 -855 -7z"/>
<path d="M6592 4489 c-128 -221 -230 -404 -229 -406 2 -2 54 38 116 87 69 56
113 86 116 78 28 -84 43 -377 26 -520 -23 -201 -99 -426 -207 -620 -88 -156
-173 -268 -314 -408 -147 -147 -265 -234 -438 -322 -53 -28 -99 -52 -101 -54
-12 -11 179 54 259 89 332 143 612 378 815 682 291 436 390 957 283 1480 -20
99 -70 272 -86 301 -7 12 -69 -88 -240 -387z"/>
<path d="M5850 4823 c-102 -17 -215 -88 -268 -169 -65 -97 -87 -223 -58 -330
32 -123 107 -211 226 -268 60 -28 73 -31 165 -31 91 1 106 4 165 31 130 62
208 165 233 307 45 263 -198 505 -463 460z m235 -67 c59 -28 108 -76 129 -128
47 -112 -29 -218 -154 -218 -83 0 -129 19 -186 75 -74 74 -88 156 -39 231 41
62 162 82 250 40z"/>
<path d="M5988 4703 c-10 -11 -15 -27 -12 -39 3 -12 -1 -26 -10 -33 -46 -38
14 -121 87 -121 41 0 56 28 54 98 -3 70 -21 97 -72 108 -22 4 -35 1 -47 -13z"/>
<path d="M3162 4638 c-36 -162 -46 -268 -46 -483 0 -204 2 -229 28 -345 87
-391 248 -697 511 -969 208 -216 473 -383 745 -471 93 -30 330 -83 338 -76 2
3 -96 178 -218 391 -122 212 -224 385 -225 383 -2 -2 8 -63 21 -137 14 -73 23
-135 20 -138 -8 -8 -161 49 -258 97 -365 182 -654 516 -811 940 -89 239 -125
528 -96 763 12 101 8 122 -9 45z"/>
<path d="M3300 1551 l0 -261 172 0 c214 0 241 9 285 98 25 51 28 68 28 157 0
91 -3 105 -30 160 -45 91 -68 99 -282 103 l-173 4 0 -261z m319 141 c45 -32
62 -79 59 -152 -7 -127 -41 -159 -176 -162 l-92 -3 0 173 0 172 92 -4 c69 -4
98 -9 117 -24z"/>
<path d="M3882 1608 c5 -233 12 -260 78 -297 80 -45 249 -37 317 15 51 39 63
96 63 306 l0 178 -55 0 -55 0 1 -180 c0 -196 -7 -226 -58 -249 -32 -14 -96
-14 -128 1 -49 22 -55 51 -55 248 l0 180 -56 0 -57 0 5 -202z"/>
<path d="M4440 1550 l0 -260 45 0 45 0 0 242 c0 133 3 238 7 234 4 -4 44 -111
89 -239 l81 -232 88 -3 c64 -2 91 1 97 10 4 7 8 124 8 261 l0 247 -50 0 -50 0
-2 -252 -3 -253 -91 250 -91 250 -87 3 -86 3 0 -261z"/>
<path d="M5136 1799 c-61 -14 -94 -40 -117 -89 -45 -95 -42 -254 7 -337 42
-72 77 -83 267 -83 l157 0 0 150 0 150 -120 0 -120 0 0 -45 0 -45 70 0 70 0 0
-61 0 -61 -89 4 c-83 3 -92 5 -120 32 -72 69 -59 241 22 282 19 10 72 19 140
23 l109 6 25 43 25 42 -143 -1 c-79 -1 -161 -5 -183 -10z"/>
<path d="M5710 1549 l0 -261 183 4 c174 3 184 4 216 27 20 14 44 47 60 80 22
48 26 70 26 147 -1 80 -4 97 -30 149 -51 102 -86 114 -307 115 l-148 0 0 -261z
m264 162 c103 -24 144 -155 85 -272 -23 -47 -55 -59 -159 -61 l-85 -3 -3 160
c-1 87 0 165 2 172 6 15 100 17 160 4z"/>
<path d="M6280 1770 l0 -40 85 0 85 0 0 -220 0 -220 55 0 55 0 0 220 0 220 70
0 70 0 20 40 20 40 -230 0 -230 0 0 -40z"/>
<path d="M4033 1080 c-42 -10 -63 -27 -80 -67 -27 -66 -5 -181 39 -204 12 -6
56 -13 99 -16 l79 -6 0 37 0 36 -64 0 c-77 0 -91 13 -91 82 0 61 19 78 87 78
43 0 49 3 63 30 8 16 15 31 15 35 0 7 -109 4 -147 -5z"/>
<path d="M4210 940 l0 -150 35 0 35 0 0 150 0 150 -35 0 -35 0 0 -150z"/>
<path d="M4320 942 l0 -149 35 -1 c30 -1 35 2 35 20 l0 22 20 -21 c15 -17 25
-20 53 -13 19 4 40 10 46 14 17 11 32 83 25 123 -10 54 -35 73 -94 73 l-50 0
0 40 c0 39 -1 40 -35 40 l-35 0 0 -148z"/>
<path d="M4655 1078 c-3 -8 -4 -75 -3 -149 l3 -134 114 1 c106 1 115 2 133 23
23 30 23 76 0 99 -18 18 -18 19 0 42 23 29 23 72 -1 101 -17 22 -28 24 -130
27 -89 3 -112 1 -116 -10z"/>
<path d="M5058 945 c-3 -155 -3 -155 48 -155 l24 0 0 150 0 150 -34 0 -35 0
-3 -145z"/>
<path d="M5840 1050 l0 -40 -49 0 c-42 0 -53 -4 -71 -27 -18 -23 -21 -38 -18
-85 5 -72 26 -98 79 -98 21 0 41 5 45 11 5 8 9 7 15 -3 5 -9 22 -15 41 -14
l33 1 3 148 3 147 -41 0 -40 0 0 -40z"/>
<path d="M4956 1013 c-3 -4 -6 -55 -6 -115 l0 -108 35 0 36 0 -3 112 -3 113
-27 2 c-14 1 -29 -1 -32 -4z"/>
<path d="M5174 1006 c-3 -7 -4 -57 -2 -112 3 -106 8 -114 61 -100 21 5 22 10
19 103 -2 54 -5 103 -7 109 -5 15 -65 15 -71 0z"/>
<path d="M5320 1010 c-4 -3 -12 -15 -19 -27 -12 -23 -11 -23 48 -23 77 0 88
-16 14 -22 -64 -6 -83 -23 -83 -74 0 -36 22 -64 50 -64 10 0 25 -3 33 -6 9 -3
25 4 36 15 20 20 21 20 21 3 0 -14 8 -19 35 -20 l35 -1 0 87 c0 117 -9 129
-96 134 -36 1 -69 1 -74 -2z"/>
<path d="M5522 903 l3 -108 33 -3 32 -3 0 70 c0 73 13 101 49 101 10 0 23 11
29 25 11 24 10 25 -22 25 -19 0 -37 -6 -40 -12 -5 -10 -7 -10 -12 0 -3 6 -21
12 -40 12 l-35 0 3 -107z"/>
<path d="M5972 998 c-17 -22 -19 -72 -2 -98 5 -8 31 -17 60 -20 74 -7 66 -25
-13 -28 -68 -3 -68 -3 -65 -30 3 -24 8 -27 43 -30 57 -5 122 7 140 24 20 20
20 88 0 104 -9 7 -38 15 -65 18 -67 6 -64 22 5 22 43 0 56 4 65 19 5 11 10 22
10 25 0 12 -168 6 -178 -6z"/>
<path d="M6348 983 c-77 -20 90 -23 1152 -23 773 0 1170 3 1170 10 0 7 -386
10 -1139 10 -627 0 -1145 2 -1153 4 -7 2 -21 2 -30 -1z"/>
<path d="M1290 973 c-43 -5 -60 -26 -60 -74 0 -73 -61 -69 941 -69 492 0 1052
3 1242 7 l347 6 0 63 c0 47 -4 63 -16 68 -17 6 -2396 5 -2454 -1z m670 -73 l0
-50 -182 2 -183 3 -3 33 c-6 63 -10 62 188 62 l180 0 0 -50z"/>
<path d="M7555 899 c-423 -3 -872 -7 -997 -8 -161 -1 -228 -4 -228 -12 0 -8
281 -10 1058 -5 1072 6 1282 11 1282 27 0 5 -75 8 -172 7 -95 -1 -519 -5 -943
-9z"/>
</g>
</svg>
